<svg width="500" height="440" viewBox="0 0 500 440" xmlns="http://www.w3.org/2000/svg">
  <defs>
    <style>
      .radar-label { font-family: 'Montserrat', 'Helvetica Neue', Arial, sans-serif; font-size: 11px; font-weight: 400; fill: #1A1A1A; letter-spacing: 0.05em; }
      .grid-line { fill: none; stroke: #1A1A1A; stroke-width: 0.5; opacity: 0.15; }
      .axis-line { stroke: #1A1A1A; stroke-width: 0.4; opacity: 0.12; fill: none; }
    </style>
  </defs>
  <rect width="500" height="440" fill="#ECE6DF"/>
  <circle cx="250" cy="225" r="46" class="grid-line"/>
  <circle cx="250" cy="225" r="93" class="grid-line"/>
  <circle cx="250" cy="225" r="140" class="grid-line"/>
  <line x1="250" y1="225" x2="250" y2="85" class="axis-line"/>
  <line x1="250" y1="225" x2="310" y2="88" class="axis-line"/>
  <line x1="250" y1="225" x2="364" y2="109" class="axis-line"/>
  <line x1="250" y1="225" x2="385" y2="157" class="axis-line"/>
  <line x1="250" y1="225" x2="390" y2="225" class="axis-line"/>
  <line x1="250" y1="225" x2="360" y2="294" class="axis-line"/>
  <line x1="250" y1="225" x2="310" y2="341" class="axis-line"/>
  <line x1="250" y1="225" x2="250" y2="365" class="axis-line"/>
  <line x1="250" y1="225" x2="190" y2="341" class="axis-line"/>
  <line x1="250" y1="225" x2="140" y2="294" class="axis-line"/>
  <line x1="250" y1="225" x2="110" y2="225" class="axis-line"/>
  <line x1="250" y1="225" x2="115" y2="157" class="axis-line"/>
  <line x1="250" y1="225" x2="136" y2="109" class="axis-line"/>
  <line x1="250" y1="225" x2="190" y2="88" class="axis-line"/>
  <text class="radar-label" x="250" y="75" text-anchor="middle">Sophistiqué</text>
  <text class="radar-label" x="316" y="79" text-anchor="start">Minimaliste</text>
  <text class="radar-label" x="368" y="102" text-anchor="start">Délicat</text>
  <text class="radar-label" x="390" y="152" text-anchor="start">Volumineux</text>
  <text class="radar-label" x="397" y="229" text-anchor="start">Symétrique</text>
  <text class="radar-label" x="365" y="300" text-anchor="start">Asymétrique</text>
  <text class="radar-label" x="314" y="351" text-anchor="start">Graphique</text>
  <text class="radar-label" x="250" y="382" text-anchor="middle">Organique</text>
  <text class="radar-label" x="186" y="351" text-anchor="end">Arrondi</text>
  <text class="radar-label" x="135" y="300" text-anchor="end">Audacieux</text>
  <text class="radar-label" x="103" y="229" text-anchor="end">Contemporain</text>
  <text class="radar-label" x="110" y="152" text-anchor="end">Romantique</text>
  <text class="radar-label" x="132" y="102" text-anchor="end">Vintage</text>
  <text class="radar-label" x="184" y="79" text-anchor="end">Classique</text>
  <circle cx="250" cy="225" r="2.5" fill="#C4A265" opacity="0.8"/>
</svg>
